. 
  
http://www.torrentday.com/        :     The Hottest Private Tracker On The Net!!!


               www . TorrentDay . Com 
(((((((((((((= Enjoy No RAR releases =))))))))))))))))))))


...................................NFO:....................................

.The.Other.Guys.2010.DVDSCR.AC3.XviD-TA

[img]http://trackeraccess.org/covers/pics/7b2bd93cacd5d1d852a86754526efe70.png[/img]

Plot:
erry Hoitz's past mistakes in the line of duty and Allen Gamble's reluctance to take risks have landed them the roles of the "Other Guys", disgraced New York City police detectives relegated to filling out paperwork for cocky hero cops Danson and Highsmith. The mismatched duo must look past their differences when they take on a high-profile investigation of shady capitalist David Ershon and attempt to fill the shoes of the notoriously reckless officers they idolize.
 
http://www.imdb.com/title/tt1386588/

Source                           : IMAGiNE vobs (Thanks)
Complete name                    : The.Other.Guys.2010.DVDSCR.AC3.XviD-TA.avi
Format                           : AVI
Format/Info                      : Audio Video Interleave
File size                        : 786 MiB
Duration                         : 1h 47mn
Overall bit rate                 : 1 024 Kbps
Writing library                  : VirtualDub build 32661/release

Video
ID                               : 0
Format                           : MPEG-4 Visual
Format profile                   : AdvancedSimple@L5
Format settings, BVOP            : Yes
Format settings, QPel            : No
Format settings, GMC             : No warppoints
Format settings, Matrix          : Default (H.263)
Muxing mode                      : Packed bitstream
Codec ID                         : XVID
Codec ID/Hint                    : XviD
Duration                         : 1h 47mn
Bit rate                         : 759 Kbps
Width                            : 606 pixels
Height                           : 244 pixels
Display aspect ratio             : 2.484
Frame rate                       : 23.976 fps
Resolution                       : 24 bits
Colorimetry                      : 4:2:0
Scan type                        : Progressive
Bits/(Pixel*Frame)               : 0.214
Stream size                      : 582 MiB (74%)
Writing library                  : XviD 1.2.1 (UTC 2008-12-04)

Audio
ID                               : 1
Format                           : AC-3
Format/Info                      : Audio Coding 3
Codec ID                         : 2000
Duration                         : 1h 47mn
Bit rate mode                    : Constant
Bit rate                         : 256 Kbps
Channel(s)                       : 2 channels
Channel positions                : L R
Sampling rate                    : 48.0 KHz
Stream size                      : 196 MiB (25%)
Alignment                        : Aligned on interleaves
Interleave, duration             : 42 ms (1.00 video frame)
Interleave, preload duration     : 512 ms

Needs: We are looking for Audio Syncers and any other Exclusive CAM sources. Both Audio and Video
All deotting done by "dedots crew" find us on irc Efnet channel #ddcrew

Contact us: ta_rg@hushmail.com

Greetz: IMAGiNE - PrisM - KINGDOM - LU - SLUGGER - Relizlab - ELEKTRI4KA
and all those that contribute...

Screens:

Enjoy,
TA-rg